<?xml version="1.0" encoding="UTF-8"?>
<!DOCTYPE svg PUBLIC "-//W3C//DTD SVG 1.1//EN" "http://www.w3.org/Graphics/SVG/1.1/DTD/svg11.dtd">
<svg xmlns="http://www.w3.org/2000/svg" version="1.1" width="32px" height="32px" style="shape-rendering:geometricPrecision; text-rendering:geometricPrecision; image-rendering:optimizeQuality; fill-rule:evenodd; clip-rule:evenodd" xmlns:xlink="http://www.w3.org/1999/xlink">
<g><path style="opacity:1" fill="#01015b" d="M -0.5,-0.5 C 0.833333,-0.5 2.16667,-0.5 3.5,-0.5C 2.5,1.16667 1.16667,2.5 -0.5,3.5C -0.5,2.16667 -0.5,0.833333 -0.5,-0.5 Z"/></g>
<g><path style="opacity:1" fill="#02080d" d="M 3.5,-0.5 C 9.83333,-0.5 16.1667,-0.5 22.5,-0.5C 16.7355,1.14743 10.7355,2.14743 4.5,2.5C 3.54885,3.91866 3.21552,5.58533 3.5,7.5C 9.02621,7.17859 14.3595,7.51192 19.5,8.5C 18.5,8.5 17.5,8.5 16.5,8.5C 15.1667,8.5 13.8333,8.5 12.5,8.5C 12.5,10.1667 12.5,11.8333 12.5,13.5C 9.60706,11.886 6.60706,10.5527 3.5,9.5C 3.5,12.5 3.5,15.5 3.5,18.5C 6.59388,17.7866 9.59388,16.7866 12.5,15.5C 12.2322,17.099 12.5655,18.4324 13.5,19.5C 13.8417,20.3382 14.5084,20.6716 15.5,20.5C 17.5,20.5 19.5,20.5 21.5,20.5C 15.69,21.4896 9.68996,21.8229 3.5,21.5C 3.28649,23.1439 3.61983,24.6439 4.5,26C 9.82294,26.4994 15.1563,26.666 20.5,26.5C 22.5753,26.3016 24.5753,26.1349 26.5,26C 22.9262,28.3872 19.2595,30.2205 15.5,31.5C 10.1667,31.5 4.83333,31.5 -0.5,31.5C -0.5,22.1667 -0.5,12.8333 -0.5,3.5C 1.16667,2.5 2.5,1.16667 3.5,-0.5 Z"/></g>
<g><path style="opacity:1" fill="#02e2e8" d="M 4.5,2.5 C 10.5092,2.33385 16.5092,2.50051 22.5,3C 30.0792,5.48331 32.5792,10.65 30,18.5C 28.0893,22.6992 24.9227,25.3658 20.5,26.5C 15.1563,26.666 9.82294,26.4994 4.5,26C 3.61983,24.6439 3.28649,23.1439 3.5,21.5C 9.68996,21.8229 15.69,21.4896 21.5,20.5C 24.3033,17.7964 25.1366,14.4631 24,10.5C 22.8904,8.96317 21.3904,8.2965 19.5,8.5C 14.3595,7.51192 9.02621,7.17859 3.5,7.5C 3.21552,5.58533 3.54885,3.91866 4.5,2.5 Z"/></g>
<g><path style="opacity:1" fill="#182015" d="M 16.5,9.5 C 16.5,9.16667 16.5,8.83333 16.5,8.5C 17.5,8.5 18.5,8.5 19.5,8.5C 21.3904,8.2965 22.8904,8.96317 24,10.5C 25.1366,14.4631 24.3033,17.7964 21.5,20.5C 19.5,20.5 17.5,20.5 15.5,20.5C 18.2743,18.6792 20.941,16.6792 23.5,14.5C 21.3512,12.5907 19.0179,10.924 16.5,9.5 Z"/></g>
<g><path style="opacity:1" fill="#7b8102" d="M 16.5,8.5 C 16.5,8.83333 16.5,9.16667 16.5,9.5C 15.5,9.5 14.5,9.5 13.5,9.5C 13.5,12.8333 13.5,16.1667 13.5,19.5C 12.5655,18.4324 12.2322,17.099 12.5,15.5C 12.5,14.8333 12.5,14.1667 12.5,13.5C 12.5,11.8333 12.5,10.1667 12.5,8.5C 13.8333,8.5 15.1667,8.5 16.5,8.5 Z"/></g>
<g><path style="opacity:1" fill="#edef00" d="M 16.5,9.5 C 19.0179,10.924 21.3512,12.5907 23.5,14.5C 20.941,16.6792 18.2743,18.6792 15.5,20.5C 14.5084,20.6716 13.8417,20.3382 13.5,19.5C 13.5,16.1667 13.5,12.8333 13.5,9.5C 14.5,9.5 15.5,9.5 16.5,9.5 Z"/></g>
<g><path style="opacity:1" fill="#01e6ea" d="M 12.5,13.5 C 12.5,14.1667 12.5,14.8333 12.5,15.5C 9.59388,16.7866 6.59388,17.7866 3.5,18.5C 3.5,15.5 3.5,12.5 3.5,9.5C 6.60706,10.5527 9.60706,11.886 12.5,13.5 Z"/></g>
<g><path style="opacity:1" fill="#071121" d="M 22.5,-0.5 C 25.5,-0.5 28.5,-0.5 31.5,-0.5C 31.5,10.1667 31.5,20.8333 31.5,31.5C 26.1667,31.5 20.8333,31.5 15.5,31.5C 19.2595,30.2205 22.9262,28.3872 26.5,26C 24.5753,26.1349 22.5753,26.3016 20.5,26.5C 24.9227,25.3658 28.0893,22.6992 30,18.5C 32.5792,10.65 30.0792,5.48331 22.5,3C 16.5092,2.50051 10.5092,2.33385 4.5,2.5C 10.7355,2.14743 16.7355,1.14743 22.5,-0.5 Z"/></g>
</svg>
